<?xml version="1.0" encoding="UTF-8" standalone="no"?>
<svg
   xmlns:dc="http://purl.org/dc/elements/1.1/"
   xmlns:cc="http://creativecommons.org/ns#"
   xmlns:rdf="http://www.w3.org/1999/02/22-rdf-syntax-ns#"
   xmlns:svg="http://www.w3.org/2000/svg"
   xmlns="http://www.w3.org/2000/svg"
   width="40.957031"
   height="43.732422"
   viewBox="0 0 10.836548 11.57087"
   version="1.1"
   id="svg20516">
  <defs
     id="defs20510" />
  <metadata
     id="metadata20513">
    <rdf:RDF>
      <cc:Work
         rdf:about="">
        <dc:format>image/svg+xml</dc:format>
        <dc:type
           rdf:resource="http://purl.org/dc/dcmitype/StillImage" />
        <dc:title></dc:title>
      </cc:Work>
    </rdf:RDF>
  </metadata>
  <path
     id="rect846"
     style="fill:#000000;stroke-width:6.24279;stroke-linecap:round"
     d="M 1.6164415,-1.9947396e-6 V 1.0479967 H 1.1224142 c -0.621882,0 -1.1224128275,0.5005309 -1.1224128275,1.1224128 v 8.1069975 c 0,0.621882 0.5005308275,1.122413 1.1224128275,1.122413 H 6.0001509 L 4.6441613,10.044346 H 1.1136274 V 4.4669109 h 7.881173 V 7.030062 L 10.153387,5.8709594 V 2.1704095 c 0,-0.6218819 -0.5005228,-1.1224128 -1.1224128,-1.1224128 H 8.3865709 V -1.9947396e-6 H 7.3106666 V 1.0479967 H 2.6923432 V -1.9947396e-6 Z" />
  <path
     id="rect878"
     style="fill:#000000;stroke-width:6.44446;stroke-linecap:round"
     d="M 2.4660001,4.8565496 1.5327247,5.7903435 2.4251776,6.6827964 1.5327247,7.5752466 2.4660001,8.5090406 3.358453,7.6165877 4.2509058,8.5090406 5.1846971,7.5752466 4.2922469,6.6827964 5.1846971,5.7903435 4.2509058,4.8565496 3.358453,5.7490024 Z" />
  <path
     id="path851"
     style="fill:#000000;stroke-width:7.29935;stroke-linecap:round"
     d="M 7.1415994,7.4420224 6.0845198,8.4996893 7.0953616,9.5105311 6.0845198,10.52137 7.1415994,11.579037 8.1524413,10.568195 9.163283,11.579037 10.220947,10.52137 9.2101082,9.5105311 10.220947,8.4996893 9.163283,7.4420224 8.1524413,8.4528641 Z" />
</svg>
