<?xml version="1.0" encoding="UTF-8" standalone="no"?>
<svg
   xmlns:dc="http://purl.org/dc/elements/1.1/"
   xmlns:cc="http://creativecommons.org/ns#"
   xmlns:rdf="http://www.w3.org/1999/02/22-rdf-syntax-ns#"
   xmlns:svg="http://www.w3.org/2000/svg"
   xmlns="http://www.w3.org/2000/svg"
   width="40.957031"
   height="43.732422"
   viewBox="0 0 10.836548 11.57087"
   version="1.1"
   id="svg20516">
  <defs
     id="defs20510" />
  <metadata
     id="metadata20513">
    <rdf:RDF>
      <cc:Work
         rdf:about="">
        <dc:format>image/svg+xml</dc:format>
        <dc:type
           rdf:resource="http://purl.org/dc/dcmitype/StillImage" />
        <dc:title></dc:title>
      </cc:Work>
    </rdf:RDF>
  </metadata>
  <g
     id="layer2"
     style="opacity:1"
     transform="translate(-236.37214,-134.15409)">
    <path
       id="rect846"
       style="fill:#000000;stroke-width:23.5948;stroke-linecap:round"
       d="M 899.48438,507.03906 V 511 h -1.86719 c -2.35042,0 -4.24219,1.89177 -4.24219,4.24219 v 30.64062 c 0,2.35042 1.89177,4.24219 4.24219,4.24219 h 18.43554 l -5.125,-5.12305 h -13.34375 v -21.08007 h 29.78711 v 9.6875 L 931.75,529.22852 V 515.24219 C 931.75,512.89177 929.85826,511 927.50781,511 h -2.43554 v -3.96094 h -4.06641 V 511 h -17.45508 v -3.96094 z"
       transform="scale(0.26458334)" />
    <path
       id="rect878"
       style="fill:#000000;stroke-width:24.357;stroke-linecap:round"
       d="m 902.69531,525.39453 -3.52734,3.5293 3.37305,3.37305 -3.37305,3.37304 3.52734,3.5293 3.37305,-3.37305 3.37305,3.37305 3.52929,-3.5293 -3.37304,-3.37304 3.37304,-3.37305 -3.52929,-3.5293 -3.37305,3.37305 z"
       transform="scale(0.26458334)" />
    <path
       id="path912"
       style="fill:#000000;stroke-width:24.357;stroke-linecap:round"
       d="m 931.06641,535.19727 -9.04102,9.04296 -4.71484,-4.71484 -3.26563,3.26563 7.98047,7.98046 12.30664,-12.30859 z"
       transform="scale(0.26458334)" />
  </g>
</svg>
