<?xml version="1.0" standalone="no"?><!DOCTYPE svg PUBLIC "-//W3C//DTD SVG 20010904//EN"
    "http://www.w3.org/TR/2001/REC-SVG-20010904/DTD/svg10.dtd">
<svg xmlns="http://www.w3.org/2000/svg" width="2100.000000pt" height="2100.000000pt"
    viewBox="0 0 2100.000000 2100.000000" preserveAspectRatio="xMidYMid meet">
    <metadata>
        Created by potrace 1.16, written by Peter Selinger 2001-2019
    </metadata>
    <g transform="translate(0.000000,2100.000000) scale(0.100000,-0.100000)" fill="#000000"
        stroke="none">
        <path d="M10035 20489 c-1813 -85 -3550 -653 -5062 -1655 -747 -496 -1411
-1080 -2021 -1779 -1042 -1194 -1783 -2621 -2162 -4160 -258 -1049 -344 -2142
-254 -3235 172 -2093 1018 -4102 2398 -5695 364 -421 763 -811 1191 -1166
1578 -1308 3504 -2095 5545 -2264 2083 -172 4152 306 5945 1373 1422 846 2629
2053 3477 3477 1267 2126 1698 4640 1213 7080 -334 1681 -1114 3273 -2239
4570 -904 1042 -1961 1856 -3191 2456 -1499 732 -3171 1076 -4840 998z m940
-999 c1396 -80 2711 -458 3895 -1120 932 -520 1733 -1172 2434 -1980 1061
-1222 1771 -2706 2055 -4293 59 -330 88 -556 123 -962 17 -203 17 -1067 0
-1270 -35 -406 -64 -632 -123 -962 -633 -3530 -3327 -6361 -6827 -7173 -118
-27 -219 -50 -224 -50 -4 0 -8 1827 -8 4060 l0 4060 1533 2 1532 3 3 508 2
507 -1892 0 -1893 1 -372 537 c-354 510 -402 579 -541 782 -32 47 -172 249
-312 450 -598 861 -791 1140 -796 1154 -8 20 12 28 166 60 684 143 1211 407
1611 805 313 313 507 664 617 1121 45 184 63 367 63 637 0 258 -8 359 -48 568
-121 639 -452 1139 -993 1499 -150 100 -241 149 -455 246 -202 91 -570 198
-850 249 -441 79 -694 97 -1520 108 l-490 6 70 24 c145 50 518 153 735 203
487 112 1032 190 1530 219 199 12 779 12 975 1z m-4575 -9700 l560 0 2 1908 3
1907 670 5 c369 3 677 2 687 -2 9 -4 60 -67 114 -140 54 -73 195 -263 314
-423 119 -159 256 -344 305 -410 49 -66 152 -205 230 -310 78 -104 202 -271
275 -370 74 -99 199 -268 279 -375 80 -107 217 -292 304 -410 88 -118 182
-244 209 -280 l50 -65 -1151 -3 -1151 -2 2 -508 3 -507 1530 -5 1530 -5 0
-4135 0 -4135 -60 -7 c-128 -15 -838 -21 -1060 -9 -1389 77 -2675 441 -3873
1098 -567 310 -1115 694 -1595 1116 -2177 1913 -3296 4699 -3042 7572 156
1753 805 3391 1891 4766 376 476 863 978 1320 1360 290 242 628 487 974 706
l115 73 3 -4205 2 -4205 560 0z m2275 8220 c736 -25 1159 -124 1519 -357 285
-184 466 -418 567 -731 67 -209 93 -483 69 -720 -43 -428 -162 -696 -424 -957
-252 -250 -563 -408 -1016 -513 -96 -23 -333 -56 -505 -72 -276 -25 -1554 -42
-1827 -23 l-98 6 0 1683 c0 1336 3 1683 13 1687 22 10 1416 7 1702 -3z" />
    </g>
</svg>
